# xmcd CD database file
#
# Track frame offsets:
#	150
#	25470
#	42201
#	61597
#	66452
#	87012
#	95388
#	114380
#	134181
#	150539
#	165344
#	179792
#
# Disc length: 2660 seconds
#
# Revision: 0
# Processed by: cddbd v1.5.1PL0 Copyright (c) Steve Scherf et al.
# Submitted via: CDex 1.51
#
DISCID=9e0a620c
DTITLE=Lo'Jo - Boheme de Cristal
DYEAR=2001
DGENRE=New Age
TTITLE0=Brule' la Me'che
TTITLE1=Baji Larabat
TTITLE2=Mon Amour
TTITLE3=Jah Has Cool Boy
TTITLE4=Dobosz
TTITLE5=Le Piamo
TTITLE6=Señor Calice
TTITLE7=Bambritcho
TTITLE8=Kanarad
TTITLE9=Á l'Embrasure des Lives
TTITLE10=Dogon
TTITLE11=In the Commotion
EXTD=YEAR: 2001
EXTT0=
EXTT1=
EXTT2=
EXTT3=
EXTT4=
EXTT5=
EXTT6=
EXTT7=
EXTT8=
EXTT9=
EXTT10=
EXTT11=
PLAYORDER=
